<?xml version='1.0' encoding='UTF-8'?>
<svg width="69mm" height="69mm" version="1.1" viewBox="0 0 69 69" xmlns="http://www.w3.org/2000/svg"><path d="M4,4H5V5H4zM5,4H6V5H5zM6,4H7V5H6zM7,4H8V5H7zM8,4H9V5H8zM9,4H10V5H9zM10,4H11V5H10zM15,4H16V5H15zM16,4H17V5H16zM17,4H18V5H17zM18,4H19V5H18zM23,4H24V5H23zM26,4H27V5H26zM29,4H30V5H29zM32,4H33V5H32zM35,4H36V5H35zM36,4H37V5H36zM39,4H40V5H39zM40,4H41V5H40zM41,4H42V5H41zM42,4H43V5H42zM44,4H45V5H44zM46,4H47V5H46zM53,4H54V5H53zM55,4H56V5H55zM56,4H57V5H56zM58,4H59V5H58zM59,4H60V5H59zM60,4H61V5H60zM61,4H62V5H61zM62,4H63V5H62zM63,4H64V5H63zM64,4H65V5H64zM4,5H5V6H4zM10,5H11V6H10zM12,5H13V6H12zM15,5H16V6H15zM16,5H17V6H16zM17,5H18V6H17zM18,5H19V6H18zM19,5H20V6H19zM20,5H21V6H20zM22,5H23V6H22zM24,5H25V6H24zM25,5H26V6H25zM26,5H27V6H26zM29,5H30V6H29zM30,5H31V6H30zM31,5H32V6H31zM33,5H34V6H33zM36,5H37V6H36zM37,5H38V6H37zM42,5H43V6H42zM50,5H51V6H50zM53,5H54V6H53zM55,5H56V6H55zM56,5H57V6H56zM58,5H59V6H58zM64,5H65V6H64zM4,6H5V7H4zM6,6H7V7H6zM7,6H8V7H7zM8,6H9V7H8zM10,6H11V7H10zM15,6H16V7H15zM17,6H18V7H17zM18,6H19V7H18zM19,6H20V7H19zM20,6H21V7H20zM22,6H23V7H22zM23,6H24V7H23zM24,6H25V7H24zM27,6H28V7H27zM29,6H30V7H29zM30,6H31V7H30zM31,6H32V7H31zM33,6H34V7H33zM34,6H35V7H34zM35,6H36V7H35zM38,6H39V7H38zM43,6H44V7H43zM46,6H47V7H46zM47,6H48V7H47zM48,6H49V7H48zM52,6H53V7H52zM54,6H55V7H54zM55,6H56V7H55zM56,6H57V7H56zM58,6H59V7H58zM60,6H61V7H60zM61,6H62V7H61zM62,6H63V7H62zM64,6H65V7H64zM4,7H5V8H4zM6,7H7V8H6zM7,7H8V8H7zM8,7H9V8H8zM10,7H11V8H10zM13,7H14V8H13zM16,7H17V8H16zM17,7H18V8H17zM18,7H19V8H18zM22,7H23V8H22zM23,7H24V8H23zM24,7H25V8H24zM25,7H26V8H25zM27,7H28V8H27zM29,7H30V8H29zM30,7H31V8H30zM31,7H32V8H31zM32,7H33V8H32zM35,7H36V8H35zM36,7H37V8H36zM37,7H38V8H37zM38,7H39V8H38zM39,7H40V8H39zM41,7H42V8H41zM42,7H43V8H42zM45,7H46V8H45zM46,7H47V8H46zM49,7H50V8H49zM50,7H51V8H50zM53,7H54V8H53zM54,7H55V8H54zM56,7H57V8H56zM58,7H59V8H58zM60,7H61V8H60zM61,7H62V8H61zM62,7H63V8H62zM64,7H65V8H64zM4,8H5V9H4zM6,8H7V9H6zM7,8H8V9H7zM8,8H9V9H8zM10,8H11V9H10zM15,8H16V9H15zM16,8H17V9H16zM17,8H18V9H17zM18,8H19V9H18zM19,8H20V9H19zM21,8H22V9H21zM24,8H25V9H24zM26,8H27V9H26zM29,8H30V9H29zM32,8H33V9H32zM33,8H34V9H33zM34,8H35V9H34zM35,8H36V9H35zM36,8H37V9H36zM37,8H38V9H37zM39,8H40V9H39zM46,8H47V9H46zM48,8H49V9H48zM49,8H50V9H49zM51,8H52V9H51zM53,8H54V9H53zM54,8H55V9H54zM55,8H56V9H55zM58,8H59V9H58zM60,8H61V9H60zM61,8H62V9H61zM62,8H63V9H62zM64,8H65V9H64zM4,9H5V10H4zM10,9H11V10H10zM12,9H13V10H12zM16,9H17V10H16zM18,9H19V10H18zM19,9H20V10H19zM20,9H21V10H20zM21,9H22V10H21zM24,9H25V10H24zM25,9H26V10H25zM27,9H28V10H27zM28,9H29V10H28zM29,9H30V10H29zM32,9H33V10H32zM36,9H37V10H36zM37,9H38V10H37zM39,9H40V10H39zM40,9H41V10H40zM41,9H42V10H41zM45,9H46V10H45zM48,9H49V10H48zM50,9H51V10H50zM52,9H53V10H52zM54,9H55V10H54zM58,9H59V10H58zM64,9H65V10H64zM4,10H5V11H4zM5,10H6V11H5zM6,10H7V11H6zM7,10H8V11H7zM8,10H9V11H8zM9,10H10V11H9zM10,10H11V11H10zM12,10H13V11H12zM14,10H15V11H14zM16,10H17V11H16zM18,10H19V11H18zM20,10H21V11H20zM22,10H23V11H22zM24,10H25V11H24zM26,10H27V11H26zM28,10H29V11H28zM30,10H31V11H30zM32,10H33V11H32zM34,10H35V11H34zM36,10H37V11H36zM38,10H39V11H38zM40,10H41V11H40zM42,10H43V11H42zM44,10H45V11H44zM46,10H47V11H46zM48,10H49V11H48zM50,10H51V11H50zM52,10H53V11H52zM54,10H55V11H54zM56,10H57V11H56zM58,10H59V11H58zM59,10H60V11H59zM60,10H61V11H60zM61,10H62V11H61zM62,10H63V11H62zM63,10H64V11H63zM64,10H65V11H64zM12,11H13V12H12zM13,11H14V12H13zM14,11H15V12H14zM16,11H17V12H16zM19,11H20V12H19zM21,11H22V12H21zM23,11H24V12H23zM24,11H25V12H24zM26,11H27V12H26zM27,11H28V12H27zM29,11H30V12H29zM30,11H31V12H30zM32,11H33V12H32zM36,11H37V12H36zM37,11H38V12H37zM38,11H39V12H38zM39,11H40V12H39zM42,11H43V12H42zM43,11H44V12H43zM45,11H46V12H45zM47,11H48V12H47zM48,11H49V12H48zM51,11H52V12H51zM52,11H53V12H52zM54,11H55V12H54zM55,11H56V12H55zM8,12H9V13H8zM9,12H10V13H9zM10,12H11V13H10zM11,12H12V13H11zM13,12H14V13H13zM14,12H15V13H14zM15,12H16V13H15zM18,12H19V13H18zM19,12H20V13H19zM21,12H22V13H21zM27,12H28V13H27zM28,12H29V13H28zM29,12H30V13H29zM30,12H31V13H30zM32,12H33V13H32zM33,12H34V13H33zM34,12H35V13H34zM35,12H36V13H35zM36,12H37V13H36zM37,12H38V13H37zM38,12H39V13H38zM40,12H41V13H40zM41,12H42V13H41zM43,12H44V13H43zM44,12H45V13H44zM45,12H46V13H45zM48,12H49V13H48zM49,12H50V13H49zM50,12H51V13H50zM51,12H52V13H51zM52,12H53V13H52zM55,12H56V13H55zM58,12H59V13H58zM59,12H60V13H59zM63,12H64V13H63zM6,13H7V14H6zM7,13H8V14H7zM9,13H10V14H9zM11,13H12V14H11zM12,13H13V14H12zM13,13H14V14H13zM14,13H15V14H14zM15,13H16V14H15zM16,13H17V14H16zM17,13H18V14H17zM19,13H20V14H19zM20,13H21V14H20zM22,13H23V14H22zM23,13H24V14H23zM24,13H25V14H24zM26,13H27V14H26zM27,13H28V14H27zM32,13H33V14H32zM34,13H35V14H34zM39,13H40V14H39zM45,13H46V14H45zM46,13H47V14H46zM49,13H50V14H49zM51,13H52V14H51zM52,13H53V14H52zM54,13H55V14H54zM55,13H56V14H55zM57,13H58V14H57zM58,13H59V14H58zM59,13H60V14H59zM60,13H61V14H60zM61,13H62V14H61zM62,13H63V14H62zM63,13H64V14H63zM4,14H5V15H4zM5,14H6V15H5zM6,14H7V15H6zM9,14H10V15H9zM10,14H11V15H10zM13,14H14V15H13zM17,14H18V15H17zM18,14H19V15H18zM19,14H20V15H19zM20,14H21V15H20zM21,14H22V15H21zM24,14H25V15H24zM25,14H26V15H25zM27,14H28V15H27zM31,14H32V15H31zM32,14H33V15H32zM33,14H34V15H33zM37,14H38V15H37zM39,14H40V15H39zM41,14H42V15H41zM44,14H45V15H44zM45,14H46V15H45zM46,14H47V15H46zM47,14H48V15H47zM48,14H49V15H48zM49,14H50V15H49zM51,14H52V15H51zM55,14H56V15H55zM56,14H57V15H56zM57,14H58V15H57zM60,14H61V15H60zM62,14H63V15H62zM4,15H5V16H4zM5,15H6V16H5zM8,15H9V16H8zM9,15H10V16H9zM12,15H13V16H12zM17,15H18V16H17zM18,15H19V16H18zM19,15H20V16H19zM20,15H21V16H20zM21,15H22V16H21zM22,15H23V16H22zM23,15H24V16H23zM25,15H26V16H25zM29,15H30V16H29zM31,15H32V16H31zM32,15H33V16H32zM33,15H34V16H33zM37,15H38V16H37zM38,15H39V16H38zM43,15H44V16H43zM47,15H48V16H47zM48,15H49V16H48zM49,15H50V16H49zM50,15H51V16H50zM51,15H52V16H51zM52,15H53V16H52zM53,15H54V16H53zM55,15H56V16H55zM57,15H58V16H57zM58,15H59V16H58zM60,15H61V16H60zM61,15H62V16H61zM62,15H63V16H62zM64,15H65V16H64zM4,16H5V17H4zM10,16H11V17H10zM11,16H12V17H11zM12,16H13V17H12zM14,16H15V17H14zM15,16H16V17H15zM20,16H21V17H20zM23,16H24V17H23zM24,16H25V17H24zM29,16H30V17H29zM31,16H32V17H31zM32,16H33V17H32zM33,16H34V17H33zM34,16H35V17H34zM35,16H36V17H35zM38,16H39V17H38zM43,16H44V17H43zM44,16H45V17H44zM46,16H47V17H46zM47,16H48V17H47zM48,16H49V17H48zM49,16H50V17H49zM51,16H52V17H51zM52,16H53V17H52zM53,16H54V17H53zM56,16H57V17H56zM60,16H61V17H60zM62,16H63V17H62zM64,16H65V17H64zM5,17H6V18H5zM6,17H7V18H6zM9,17H10V18H9zM13,17H14V18H13zM14,17H15V18H14zM16,17H17V18H16zM19,17H20V18H19zM21,17H22V18H21zM22,17H23V18H22zM23,17H24V18H23zM25,17H26V18H25zM26,17H27V18H26zM28,17H29V18H28zM29,17H30V18H29zM30,17H31V18H30zM31,17H32V18H31zM34,17H35V18H34zM35,17H36V18H35zM36,17H37V18H36zM40,17H41V18H40zM41,17H42V18H41zM42,17H43V18H42zM45,17H46V18H45zM46,17H47V18H46zM48,17H49V18H48zM49,17H50V18H49zM54,17H55V18H54zM55,17H56V18H55zM57,17H58V18H57zM58,17H59V18H58zM59,17H60V18H59zM64,17H65V18H64zM5,18H6V19H5zM7,18H8V19H7zM10,18H11V19H10zM15,18H16V19H15zM16,18H17V19H16zM18,18H19V19H18zM19,18H20V19H19zM20,18H21V19H20zM22,18H23V19H22zM23,18H24V19H23zM25,18H26V19H25zM26,18H27V19H26zM28,18H29V19H28zM29,18H30V19H29zM32,18H33V19H32zM33,18H34V19H33zM34,18H35V19H34zM38,18H39V19H38zM39,18H40V19H39zM41,18H42V19H41zM43,18H44V19H43zM45,18H46V19H45zM46,18H47V19H46zM49,18H50V19H49zM50,18H51V19H50zM54,18H55V19H54zM55,18H56V19H55zM58,18H59V19H58zM59,18H60V19H59zM61,18H62V19H61zM62,18H63V19H62zM63,18H64V19H63zM64,18H65V19H64zM5,19H6V20H5zM6,19H7V20H6zM7,19H8V20H7zM8,19H9V20H8zM11,19H12V20H11zM13,19H14V20H13zM14,19H15V20H14zM17,19H18V20H17zM27,19H28V20H27zM33,19H34V20H33zM36,19H37V20H36zM37,19H38V20H37zM38,19H39V20H38zM39,19H40V20H39zM40,19H41V20H40zM41,19H42V20H41zM42,19H43V20H42zM43,19H44V20H43zM45,19H46V20H45zM47,19H48V20H47zM48,19H49V20H48zM50,19H51V20H50zM52,19H53V20H52zM55,19H56V20H55zM56,19H57V20H56zM57,19H58V20H57zM58,19H59V20H58zM60,19H61V20H60zM62,19H63V20H62zM63,19H64V20H63zM5,20H6V21H5zM7,20H8V21H7zM9,20H10V21H9zM10,20H11V21H10zM12,20H13V21H12zM15,20H16V21H15zM18,20H19V21H18zM20,20H21V21H20zM21,20H22V21H21zM24,20H25V21H24zM28,20H29V21H28zM29,20H30V21H29zM31,20H32V21H31zM32,20H33V21H32zM39,20H40V21H39zM40,20H41V21H40zM41,20H42V21H41zM42,20H43V21H42zM44,20H45V21H44zM45,20H46V21H45zM47,20H48V21H47zM48,20H49V21H48zM49,20H50V21H49zM50,20H51V21H50zM51,20H52V21H51zM52,20H53V21H52zM56,20H57V21H56zM57,20H58V21H57zM58,20H59V21H58zM60,20H61V21H60zM62,20H63V21H62zM64,20H65V21H64zM4,21H5V22H4zM5,21H6V22H5zM6,21H7V22H6zM7,21H8V22H7zM11,21H12V22H11zM12,21H13V22H12zM13,21H14V22H13zM15,21H16V22H15zM17,21H18V22H17zM19,21H20V22H19zM21,21H22V22H21zM22,21H23V22H22zM25,21H26V22H25zM27,21H28V22H27zM30,21H31V22H30zM31,21H32V22H31zM32,21H33V22H32zM33,21H34V22H33zM34,21H35V22H34zM35,21H36V22H35zM37,21H38V22H37zM39,21H40V22H39zM43,21H44V22H43zM45,21H46V22H45zM46,21H47V22H46zM47,21H48V22H47zM49,21H50V22H49zM51,21H52V22H51zM52,21H53V22H52zM54,21H55V22H54zM55,21H56V22H55zM57,21H58V22H57zM58,21H59V22H58zM59,21H60V22H59zM61,21H62V22H61zM7,22H8V23H7zM9,22H10V23H9zM10,22H11V23H10zM12,22H13V23H12zM14,22H15V23H14zM15,22H16V23H15zM16,22H17V23H16zM18,22H19V23H18zM19,22H20V23H19zM21,22H22V23H21zM23,22H24V23H23zM27,22H28V23H27zM28,22H29V23H28zM32,22H33V23H32zM34,22H35V23H34zM36,22H37V23H36zM37,22H38V23H37zM38,22H39V23H38zM40,22H41V23H40zM41,22H42V23H41zM42,22H43V23H42zM45,22H46V23H45zM46,22H47V23H46zM48,22H49V23H48zM49,22H50V23H49zM50,22H51V23H50zM54,22H55V23H54zM59,22H60V23H59zM60,22H61V23H60zM61,22H62V23H61zM62,22H63V23H62zM6,23H7V24H6zM7,23H8V24H7zM17,23H18V24H17zM18,23H19V24H18zM20,23H21V24H20zM24,23H25V24H24zM26,23H27V24H26zM33,23H34V24H33zM35,23H36V24H35zM36,23H37V24H36zM37,23H38V24H37zM40,23H41V24H40zM41,23H42V24H41zM43,23H44V24H43zM44,23H45V24H44zM45,23H46V24H45zM47,23H48V24H47zM48,23H49V24H48zM50,23H51V24H50zM52,23H53V24H52zM53,23H54V24H53zM58,23H59V24H58zM59,23H60V24H59zM60,23H61V24H60zM62,23H63V24H62zM5,24H6V25H5zM7,24H8V25H7zM8,24H9V25H8zM9,24H10V25H9zM10,24H11V25H10zM15,24H16V25H15zM17,24H18V25H17zM18,24H19V25H18zM20,24H21V25H20zM21,24H22V25H21zM22,24H23V25H22zM24,24H25V25H24zM26,24H27V25H26zM27,24H28V25H27zM28,24H29V25H28zM29,24H30V25H29zM30,24H31V25H30zM32,24H33V25H32zM33,24H34V25H33zM36,24H37V25H36zM38,24H39V25H38zM41,24H42V25H41zM42,24H43V25H42zM43,24H44V25H43zM45,24H46V25H45zM46,24H47V25H46zM47,24H48V25H47zM48,24H49V25H48zM51,24H52V25H51zM52,24H53V25H52zM54,24H55V25H54zM55,24H56V25H55zM56,24H57V25H56zM57,24H58V25H57zM60,24H61V25H60zM61,24H62V25H61zM62,24H63V25H62zM7,25H8V26H7zM8,25H9V26H8zM9,25H10V26H9zM13,25H14V26H13zM14,25H15V26H14zM19,25H20V26H19zM20,25H21V26H20zM22,25H23V26H22zM29,25H30V26H29zM30,25H31V26H30zM33,25H34V26H33zM34,25H35V26H34zM36,25H37V26H36zM37,25H38V26H37zM38,25H39V26H38zM39,25H40V26H39zM40,25H41V26H40zM42,25H43V26H42zM43,25H44V26H43zM45,25H46V26H45zM46,25H47V26H46zM49,25H50V26H49zM51,25H52V26H51zM52,25H53V26H52zM54,25H55V26H54zM55,25H56V26H55zM58,25H59V26H58zM59,25H60V26H59zM60,25H61V26H60zM61,25H62V26H61zM4,26H5V27H4zM5,26H6V27H5zM6,26H7V27H6zM7,26H8V27H7zM8,26H9V27H8zM10,26H11V27H10zM12,26H13V27H12zM14,26H15V27H14zM16,26H17V27H16zM17,26H18V27H17zM18,26H19V27H18zM20,26H21V27H20zM23,26H24V27H23zM29,26H30V27H29zM31,26H32V27H31zM32,26H33V27H32zM35,26H36V27H35zM37,26H38V27H37zM38,26H39V27H38zM42,26H43V27H42zM44,26H45V27H44zM45,26H46V27H45zM50,26H51V27H50zM54,26H55V27H54zM55,26H56V27H55zM56,26H57V27H56zM57,26H58V27H57zM58,26H59V27H58zM60,26H61V27H60zM61,26H62V27H61zM62,26H63V27H62zM4,27H5V28H4zM8,27H9V28H8zM11,27H12V28H11zM12,27H13V28H12zM16,27H17V28H16zM18,27H19V28H18zM22,27H23V28H22zM23,27H24V28H23zM25,27H26V28H25zM27,27H28V28H27zM28,27H29V28H28zM29,27H30V28H29zM31,27H32V28H31zM32,27H33V28H32zM34,27H35V28H34zM36,27H37V28H36zM40,27H41V28H40zM41,27H42V28H41zM43,27H44V28H43zM47,27H48V28H47zM48,27H49V28H48zM50,27H51V28H50zM53,27H54V28H53zM54,27H55V28H54zM56,27H57V28H56zM58,27H59V28H58zM60,27H61V28H60zM62,27H63V28H62zM63,27H64V28H63zM5,28H6V29H5zM7,28H8V29H7zM10,28H11V29H10zM11,28H12V29H11zM13,28H14V29H13zM14,28H15V29H14zM15,28H16V29H15zM16,28H17V29H16zM17,28H18V29H17zM18,28H19V29H18zM19,28H20V29H19zM20,28H21V29H20zM24,28H25V29H24zM25,28H26V29H25zM27,28H28V29H27zM29,28H30V29H29zM33,28H34V29H33zM38,28H39V29H38zM40,28H41V29H40zM41,28H42V29H41zM42,28H43V29H42zM43,28H44V29H43zM44,28H45V29H44zM47,28H48V29H47zM48,28H49V29H48zM49,28H50V29H49zM50,28H51V29H50zM51,28H52V29H51zM52,28H53V29H52zM54,28H55V29H54zM56,28H57V29H56zM57,28H58V29H57zM58,28H59V29H58zM59,28H60V29H59zM60,28H61V29H60zM63,28H64V29H63zM64,28H65V29H64zM7,29H8V30H7zM9,29H10V30H9zM12,29H13V30H12zM14,29H15V30H14zM15,29H16V30H15zM16,29H17V30H16zM23,29H24V30H23zM24,29H25V30H24zM26,29H27V30H26zM28,29H29V30H28zM29,29H30V30H29zM31,29H32V30H31zM32,29H33V30H32zM36,29H37V30H36zM37,29H38V30H37zM41,29H42V30H41zM43,29H44V30H43zM44,29H45V30H44zM45,29H46V30H45zM46,29H47V30H46zM49,29H50V30H49zM51,29H52V30H51zM54,29H55V30H54zM55,29H56V30H55zM57,29H58V30H57zM58,29H59V30H58zM59,29H60V30H59zM60,29H61V30H60zM61,29H62V30H61zM63,29H64V30H63zM5,30H6V31H5zM6,30H7V31H6zM7,30H8V31H7zM8,30H9V31H8zM9,30H10V31H9zM10,30H11V31H10zM11,30H12V31H11zM12,30H13V31H12zM15,30H16V31H15zM17,30H18V31H17zM19,30H20V31H19zM20,30H21V31H20zM21,30H22V31H21zM22,30H23V31H22zM23,30H24V31H23zM29,30H30V31H29zM30,30H31V31H30zM31,30H32V31H31zM33,30H34V31H33zM35,30H36V31H35zM36,30H37V31H36zM38,30H39V31H38zM39,30H40V31H39zM40,30H41V31H40zM42,30H43V31H42zM43,30H44V31H43zM44,30H45V31H44zM47,30H48V31H47zM48,30H49V31H48zM49,30H50V31H49zM53,30H54V31H53zM54,30H55V31H54zM59,30H60V31H59zM61,30H62V31H61zM62,30H63V31H62zM9,31H10V32H9zM12,31H13V32H12zM13,31H14V32H13zM14,31H15V32H14zM16,31H17V32H16zM17,31H18V32H17zM18,31H19V32H18zM23,31H24V32H23zM24,31H25V32H24zM25,31H26V32H25zM30,31H31V32H30zM34,31H35V32H34zM36,31H37V32H36zM37,31H38V32H37zM38,31H39V32H38zM39,31H40V32H39zM41,31H42V32H41zM42,31H43V32H42zM43,31H44V32H43zM45,31H46V32H45zM48,31H49V32H48zM49,31H50V32H49zM50,31H51V32H50zM51,31H52V32H51zM52,31H53V32H52zM53,31H54V32H53zM54,31H55V32H54zM55,31H56V32H55zM56,31H57V32H56zM57,31H58V32H57zM60,31H61V32H60zM62,31H63V32H62zM6,32H7V33H6zM8,32H9V33H8zM9,32H10V33H9zM10,32H11V33H10zM11,32H12V33H11zM12,32H13V33H12zM15,32H16V33H15zM18,32H19V33H18zM20,32H21V33H20zM21,32H22V33H21zM22,32H23V33H22zM24,32H25V33H24zM26,32H27V33H26zM27,32H28V33H27zM32,32H33V33H32zM33,32H34V33H33zM34,32H35V33H34zM35,32H36V33H35zM36,32H37V33H36zM38,32H39V33H38zM42,32H43V33H42zM43,32H44V33H43zM45,32H46V33H45zM48,32H49V33H48zM50,32H51V33H50zM51,32H52V33H51zM52,32H53V33H52zM56,32H57V33H56zM57,32H58V33H57zM58,32H59V33H58zM59,32H60V33H59zM60,32H61V33H60zM63,32H64V33H63zM64,32H65V33H64zM4,33H5V34H4zM7,33H8V34H7zM8,33H9V34H8zM12,33H13V34H12zM16,33H17V34H16zM24,33H25V34H24zM25,33H26V34H25zM26,33H27V34H26zM27,33H28V34H27zM29,33H30V34H29zM32,33H33V34H32zM36,33H37V34H36zM37,33H38V34H37zM38,33H39V34H38zM39,33H40V34H39zM40,33H41V34H40zM41,33H42V34H41zM42,33H43V34H42zM44,33H45V34H44zM45,33H46V34H45zM46,33H47V34H46zM47,33H48V34H47zM49,33H50V34H49zM51,33H52V34H51zM54,33H55V34H54zM55,33H56V34H55zM56,33H57V34H56zM60,33H61V34H60zM61,33H62V34H61zM63,33H64V34H63zM4,34H5V35H4zM8,34H9V35H8zM10,34H11V35H10zM12,34H13V35H12zM13,34H14V35H13zM14,34H15V35H14zM18,34H19V35H18zM20,34H21V35H20zM22,34H23V35H22zM23,34H24V35H23zM24,34H25V35H24zM25,34H26V35H25zM26,34H27V35H26zM30,34H31V35H30zM32,34H33V35H32zM34,34H35V35H34zM36,34H37V35H36zM39,34H40V35H39zM40,34H41V35H40zM41,34H42V35H41zM42,34H43V35H42zM45,34H46V35H45zM46,34H47V35H46zM47,34H48V35H47zM48,34H49V35H48zM49,34H50V35H49zM52,34H53V35H52zM54,34H55V35H54zM56,34H57V35H56zM58,34H59V35H58zM60,34H61V35H60zM62,34H63V35H62zM4,35H5V36H4zM7,35H8V36H7zM8,35H9V36H8zM12,35H13V36H12zM13,35H14V36H13zM16,35H17V36H16zM22,35H23V36H22zM24,35H25V36H24zM27,35H28V36H27zM32,35H33V36H32zM36,35H37V36H36zM37,35H38V36H37zM38,35H39V36H38zM40,35H41V36H40zM41,35H42V36H41zM43,35H44V36H43zM48,35H49V36H48zM49,35H50V36H49zM50,35H51V36H50zM51,35H52V36H51zM52,35H53V36H52zM55,35H56V36H55zM56,35H57V36H56zM60,35H61V36H60zM62,35H63V36H62zM64,35H65V36H64zM4,36H5V37H4zM6,36H7V37H6zM8,36H9V37H8zM9,36H10V37H9zM10,36H11V37H10zM11,36H12V37H11zM12,36H13V37H12zM13,36H14V37H13zM18,36H19V37H18zM19,36H20V37H19zM20,36H21V37H20zM22,36H23V37H22zM23,36H24V37H23zM27,36H28V37H27zM32,36H33V37H32zM33,36H34V37H33zM34,36H35V37H34zM35,36H36V37H35zM36,36H37V37H36zM37,36H38V37H37zM39,36H40V37H39zM40,36H41V37H40zM43,36H44V37H43zM45,36H46V37H45zM46,36H47V37H46zM48,36H49V37H48zM49,36H50V37H49zM51,36H52V37H51zM52,36H53V37H52zM53,36H54V37H53zM54,36H55V37H54zM55,36H56V37H55zM56,36H57V37H56zM57,36H58V37H57zM58,36H59V37H58zM59,36H60V37H59zM60,36H61V37H60zM61,36H62V37H61zM62,36H63V37H62zM63,36H64V37H63zM11,37H12V38H11zM12,37H13V38H12zM13,37H14V38H13zM14,37H15V38H14zM15,37H16V38H15zM16,37H17V38H16zM17,37H18V38H17zM19,37H20V38H19zM23,37H24V38H23zM26,37H27V38H26zM28,37H29V38H28zM36,37H37V38H36zM40,37H41V38H40zM41,37H42V38H41zM42,37H43V38H42zM43,37H44V38H43zM44,37H45V38H44zM45,37H46V38H45zM46,37H47V38H46zM49,37H50V38H49zM52,37H53V38H52zM54,37H55V38H54zM60,37H61V38H60zM63,37H64V38H63zM64,37H65V38H64zM6,38H7V39H6zM7,38H8V39H7zM9,38H10V39H9zM10,38H11V39H10zM12,38H13V39H12zM13,38H14V39H13zM16,38H17V39H16zM18,38H19V39H18zM19,38H20V39H19zM20,38H21V39H20zM21,38H22V39H21zM23,38H24V39H23zM25,38H26V39H25zM27,38H28V39H27zM28,38H29V39H28zM31,38H32V39H31zM34,38H35V39H34zM35,38H36V39H35zM36,38H37V39H36zM37,38H38V39H37zM40,38H41V39H40zM42,38H43V39H42zM47,38H48V39H47zM48,38H49V39H48zM51,38H52V39H51zM52,38H53V39H52zM53,38H54V39H53zM54,38H55V39H54zM55,38H56V39H55zM59,38H60V39H59zM60,38H61V39H60zM61,38H62V39H61zM62,38H63V39H62zM9,39H10V40H9zM11,39H12V40H11zM12,39H13V40H12zM13,39H14V40H13zM19,39H20V40H19zM20,39H21V40H20zM21,39H22V40H21zM22,39H23V40H22zM23,39H24V40H23zM25,39H26V40H25zM26,39H27V40H26zM29,39H30V40H29zM30,39H31V40H30zM32,39H33V40H32zM36,39H37V40H36zM38,39H39V40H38zM39,39H40V40H39zM41,39H42V40H41zM43,39H44V40H43zM44,39H45V40H44zM45,39H46V40H45zM47,39H48V40H47zM48,39H49V40H48zM49,39H50V40H49zM51,39H52V40H51zM52,39H53V40H52zM53,39H54V40H53zM54,39H55V40H54zM57,39H58V40H57zM58,39H59V40H58zM59,39H60V40H59zM60,39H61V40H60zM62,39H63V40H62zM63,39H64V40H63zM64,39H65V40H64zM6,40H7V41H6zM8,40H9V41H8zM9,40H10V41H9zM10,40H11V41H10zM11,40H12V41H11zM13,40H14V41H13zM14,40H15V41H14zM16,40H17V41H16zM17,40H18V41H17zM20,40H21V41H20zM22,40H23V41H22zM23,40H24V41H23zM27,40H28V41H27zM28,40H29V41H28zM30,40H31V41H30zM32,40H33V41H32zM33,40H34V41H33zM35,40H36V41H35zM38,40H39V41H38zM41,40H42V41H41zM42,40H43V41H42zM43,40H44V41H43zM44,40H45V41H44zM48,40H49V41H48zM49,40H50V41H49zM52,40H53V41H52zM56,40H57V41H56zM58,40H59V41H58zM62,40H63V41H62zM64,40H65V41H64zM6,41H7V42H6zM8,41H9V42H8zM12,41H13V42H12zM14,41H15V42H14zM16,41H17V42H16zM18,41H19V42H18zM21,41H22V42H21zM23,41H24V42H23zM25,41H26V42H25zM28,41H29V42H28zM30,41H31V42H30zM33,41H34V42H33zM34,41H35V42H34zM36,41H37V42H36zM40,41H41V42H40zM44,41H45V42H44zM45,41H46V42H45zM46,41H47V42H46zM47,41H48V42H47zM49,41H50V42H49zM51,41H52V42H51zM54,41H55V42H54zM56,41H57V42H56zM57,41H58V42H57zM60,41H61V42H60zM61,41H62V42H61zM62,41H63V42H62zM4,42H5V43H4zM10,42H11V43H10zM11,42H12V43H11zM12,42H13V43H12zM13,42H14V43H13zM14,42H15V43H14zM15,42H16V43H15zM16,42H17V43H16zM21,42H22V43H21zM22,42H23V43H22zM23,42H24V43H23zM25,42H26V43H25zM26,42H27V43H26zM28,42H29V43H28zM30,42H31V43H30zM33,42H34V43H33zM36,42H37V43H36zM39,42H40V43H39zM45,42H46V43H45zM46,42H47V43H46zM49,42H50V43H49zM51,42H52V43H51zM54,42H55V43H54zM59,42H60V43H59zM62,42H63V43H62zM4,43H5V44H4zM6,43H7V44H6zM8,43H9V44H8zM11,43H12V44H11zM12,43H13V44H12zM13,43H14V44H13zM16,43H17V44H16zM19,43H20V44H19zM20,43H21V44H20zM23,43H24V44H23zM24,43H25V44H24zM26,43H27V44H26zM28,43H29V44H28zM34,43H35V44H34zM36,43H37V44H36zM39,43H40V44H39zM41,43H42V44H41zM43,43H44V44H43zM46,43H47V44H46zM48,43H49V44H48zM50,43H51V44H50zM51,43H52V44H51zM52,43H53V44H52zM53,43H54V44H53zM54,43H55V44H54zM57,43H58V44H57zM58,43H59V44H58zM59,43H60V44H59zM62,43H63V44H62zM64,43H65V44H64zM4,44H5V45H4zM6,44H7V45H6zM7,44H8V45H7zM9,44H10V45H9zM10,44H11V45H10zM14,44H15V45H14zM15,44H16V45H15zM23,44H24V45H23zM25,44H26V45H25zM26,44H27V45H26zM30,44H31V45H30zM33,44H34V45H33zM34,44H35V45H34zM35,44H36V45H35zM40,44H41V45H40zM43,44H44V45H43zM45,44H46V45H45zM46,44H47V45H46zM48,44H49V45H48zM49,44H50V45H49zM51,44H52V45H51zM52,44H53V45H52zM54,44H55V45H54zM56,44H57V45H56zM57,44H58V45H57zM59,44H60V45H59zM61,44H62V45H61zM63,44H64V45H63zM64,44H65V45H64zM8,45H9V46H8zM9,45H10V46H9zM11,45H12V46H11zM13,45H14V46H13zM14,45H15V46H14zM17,45H18V46H17zM18,45H19V46H18zM20,45H21V46H20zM23,45H24V46H23zM24,45H25V46H24zM27,45H28V46H27zM29,45H30V46H29zM31,45H32V46H31zM36,45H37V46H36zM38,45H39V46H38zM39,45H40V46H39zM41,45H42V46H41zM42,45H43V46H42zM44,45H45V46H44zM45,45H46V46H45zM46,45H47V46H46zM49,45H50V46H49zM51,45H52V46H51zM54,45H55V46H54zM55,45H56V46H55zM56,45H57V46H56zM57,45H58V46H57zM58,45H59V46H58zM60,45H61V46H60zM61,45H62V46H61zM62,45H63V46H62zM63,45H64V46H63zM64,45H65V46H64zM4,46H5V47H4zM5,46H6V47H5zM8,46H9V47H8zM9,46H10V47H9zM10,46H11V47H10zM12,46H13V47H12zM13,46H14V47H13zM14,46H15V47H14zM17,46H18V47H17zM18,46H19V47H18zM20,46H21V47H20zM21,46H22V47H21zM23,46H24V47H23zM25,46H26V47H25zM29,46H30V47H29zM32,46H33V47H32zM37,46H38V47H37zM38,46H39V47H38zM42,46H43V47H42zM44,46H45V47H44zM46,46H47V47H46zM47,46H48V47H47zM53,46H54V47H53zM54,46H55V47H54zM61,46H62V47H61zM4,47H5V48H4zM6,47H7V48H6zM7,47H8V48H7zM8,47H9V48H8zM9,47H10V48H9zM11,47H12V48H11zM12,47H13V48H12zM16,47H17V48H16zM17,47H18V48H17zM19,47H20V48H19zM20,47H21V48H20zM23,47H24V48H23zM25,47H26V48H25zM26,47H27V48H26zM28,47H29V48H28zM35,47H36V48H35zM39,47H40V48H39zM40,47H41V48H40zM42,47H43V48H42zM48,47H49V48H48zM52,47H53V48H52zM53,47H54V48H53zM57,47H58V48H57zM58,47H59V48H58zM59,47H60V48H59zM62,47H63V48H62zM7,48H8V49H7zM10,48H11V49H10zM11,48H12V49H11zM14,48H15V49H14zM15,48H16V49H15zM17,48H18V49H17zM19,48H20V49H19zM23,48H24V49H23zM25,48H26V49H25zM26,48H27V49H26zM28,48H29V49H28zM30,48H31V49H30zM31,48H32V49H31zM32,48H33V49H32zM34,48H35V49H34zM36,48H37V49H36zM40,48H41V49H40zM43,48H44V49H43zM48,48H49V49H48zM49,48H50V49H49zM50,48H51V49H50zM52,48H53V49H52zM53,48H54V49H53zM56,48H57V49H56zM57,48H58V49H57zM58,48H59V49H58zM59,48H60V49H59zM62,48H63V49H62zM63,48H64V49H63zM64,48H65V49H64zM4,49H5V50H4zM7,49H8V50H7zM11,49H12V50H11zM12,49H13V50H12zM16,49H17V50H16zM20,49H21V50H20zM22,49H23V50H22zM24,49H25V50H24zM25,49H26V50H25zM27,49H28V50H27zM28,49H29V50H28zM29,49H30V50H29zM30,49H31V50H30zM31,49H32V50H31zM32,49H33V50H32zM33,49H34V50H33zM35,49H36V50H35zM36,49H37V50H36zM37,49H38V50H37zM38,49H39V50H38zM41,49H42V50H41zM43,49H44V50H43zM45,49H46V50H45zM46,49H47V50H46zM47,49H48V50H47zM48,49H49V50H48zM51,49H52V50H51zM54,49H55V50H54zM55,49H56V50H55zM56,49H57V50H56zM58,49H59V50H58zM60,49H61V50H60zM62,49H63V50H62zM63,49H64V50H63zM9,50H10V51H9zM10,50H11V51H10zM12,50H13V51H12zM13,50H14V51H13zM17,50H18V51H17zM20,50H21V51H20zM25,50H26V51H25zM29,50H30V51H29zM31,50H32V51H31zM36,50H37V51H36zM39,50H40V51H39zM44,50H45V51H44zM46,50H47V51H46zM47,50H48V51H47zM49,50H50V51H49zM51,50H52V51H51zM53,50H54V51H53zM56,50H57V51H56zM61,50H62V51H61zM62,50H63V51H62zM5,51H6V52H5zM11,51H12V52H11zM12,51H13V52H12zM17,51H18V52H17zM18,51H19V52H18zM19,51H20V52H19zM23,51H24V52H23zM24,51H25V52H24zM28,51H29V52H28zM30,51H31V52H30zM31,51H32V52H31zM33,51H34V52H33zM36,51H37V52H36zM37,51H38V52H37zM40,51H41V52H40zM46,51H47V52H46zM48,51H49V52H48zM50,51H51V52H50zM51,51H52V52H51zM52,51H53V52H52zM53,51H54V52H53zM55,51H56V52H55zM58,51H59V52H58zM59,51H60V52H59zM62,51H63V52H62zM63,51H64V52H63zM4,52H5V53H4zM5,52H6V53H5zM7,52H8V53H7zM9,52H10V53H9zM10,52H11V53H10zM14,52H15V53H14zM16,52H17V53H16zM18,52H19V53H18zM19,52H20V53H19zM20,52H21V53H20zM22,52H23V53H22zM24,52H25V53H24zM25,52H26V53H25zM26,52H27V53H26zM27,52H28V53H27zM39,52H40V53H39zM40,52H41V53H40zM43,52H44V53H43zM45,52H46V53H45zM46,52H47V53H46zM48,52H49V53H48zM49,52H50V53H49zM51,52H52V53H51zM52,52H53V53H52zM57,52H58V53H57zM58,52H59V53H58zM60,52H61V53H60zM62,52H63V53H62zM4,53H5V54H4zM8,53H9V54H8zM9,53H10V54H9zM13,53H14V54H13zM14,53H15V54H14zM25,53H26V54H25zM26,53H27V54H26zM28,53H29V54H28zM29,53H30V54H29zM34,53H35V54H34zM35,53H36V54H35zM36,53H37V54H36zM39,53H40V54H39zM43,53H44V54H43zM44,53H45V54H44zM45,53H46V54H45zM46,53H47V54H46zM54,53H55V54H54zM55,53H56V54H55zM56,53H57V54H56zM57,53H58V54H57zM60,53H61V54H60zM6,54H7V55H6zM7,54H8V55H7zM8,54H9V55H8zM9,54H10V55H9zM10,54H11V55H10zM11,54H12V55H11zM13,54H14V55H13zM15,54H16V55H15zM18,54H19V55H18zM19,54H20V55H19zM20,54H21V55H20zM21,54H22V55H21zM25,54H26V55H25zM29,54H30V55H29zM30,54H31V55H30zM31,54H32V55H31zM33,54H34V55H33zM34,54H35V55H34zM35,54H36V55H35zM36,54H37V55H36zM37,54H38V55H37zM40,54H41V55H40zM43,54H44V55H43zM44,54H45V55H44zM46,54H47V55H46zM49,54H50V55H49zM52,54H53V55H52zM55,54H56V55H55zM56,54H57V55H56zM60,54H61V55H60zM4,55H5V56H4zM5,55H6V56H5zM6,55H7V56H6zM8,55H9V56H8zM11,55H12V56H11zM17,55H18V56H17zM19,55H20V56H19zM20,55H21V56H20zM21,55H22V56H21zM23,55H24V56H23zM24,55H25V56H24zM26,55H27V56H26zM27,55H28V56H27zM28,55H29V56H28zM29,55H30V56H29zM30,55H31V56H30zM31,55H32V56H31zM32,55H33V56H32zM33,55H34V56H33zM34,55H35V56H34zM37,55H38V56H37zM38,55H39V56H38zM40,55H41V56H40zM41,55H42V56H41zM46,55H47V56H46zM48,55H49V56H48zM50,55H51V56H50zM51,55H52V56H51zM52,55H53V56H52zM55,55H56V56H55zM57,55H58V56H57zM58,55H59V56H58zM60,55H61V56H60zM61,55H62V56H61zM62,55H63V56H62zM64,55H65V56H64zM4,56H5V57H4zM5,56H6V57H5zM6,56H7V57H6zM7,56H8V57H7zM10,56H11V57H10zM12,56H13V57H12zM13,56H14V57H13zM14,56H15V57H14zM15,56H16V57H15zM17,56H18V57H17zM19,56H20V57H19zM22,56H23V57H22zM24,56H25V57H24zM26,56H27V57H26zM27,56H28V57H27zM29,56H30V57H29zM30,56H31V57H30zM32,56H33V57H32zM33,56H34V57H33zM34,56H35V57H34zM35,56H36V57H35zM36,56H37V57H36zM40,56H41V57H40zM45,56H46V57H45zM48,56H49V57H48zM51,56H52V57H51zM52,56H53V57H52zM53,56H54V57H53zM56,56H57V57H56zM57,56H58V57H57zM58,56H59V57H58zM59,56H60V57H59zM60,56H61V57H60zM62,56H63V57H62zM63,56H64V57H63zM12,57H13V58H12zM16,57H17V58H16zM18,57H19V58H18zM19,57H20V58H19zM21,57H22V58H21zM22,57H23V58H22zM25,57H26V58H25zM26,57H27V58H26zM27,57H28V58H27zM28,57H29V58H28zM32,57H33V58H32zM36,57H37V58H36zM37,57H38V58H37zM40,57H41V58H40zM41,57H42V58H41zM43,57H44V58H43zM46,57H47V58H46zM47,57H48V58H47zM52,57H53V58H52zM53,57H54V58H53zM54,57H55V58H54zM55,57H56V58H55zM56,57H57V58H56zM60,57H61V58H60zM61,57H62V58H61zM62,57H63V58H62zM4,58H5V59H4zM5,58H6V59H5zM6,58H7V59H6zM7,58H8V59H7zM8,58H9V59H8zM9,58H10V59H9zM10,58H11V59H10zM12,58H13V59H12zM13,58H14V59H13zM15,58H16V59H15zM16,58H17V59H16zM18,58H19V59H18zM19,58H20V59H19zM23,58H24V59H23zM24,58H25V59H24zM25,58H26V59H25zM27,58H28V59H27zM31,58H32V59H31zM32,58H33V59H32zM34,58H35V59H34zM36,58H37V59H36zM37,58H38V59H37zM39,58H40V59H39zM40,58H41V59H40zM41,58H42V59H41zM42,58H43V59H42zM45,58H46V59H45zM47,58H48V59H47zM49,58H50V59H49zM51,58H52V59H51zM53,58H54V59H53zM54,58H55V59H54zM56,58H57V59H56zM58,58H59V59H58zM60,58H61V59H60zM4,59H5V60H4zM10,59H11V60H10zM12,59H13V60H12zM13,59H14V60H13zM18,59H19V60H18zM19,59H20V60H19zM20,59H21V60H20zM21,59H22V60H21zM25,59H26V60H25zM27,59H28V60H27zM29,59H30V60H29zM30,59H31V60H30zM32,59H33V60H32zM36,59H37V60H36zM38,59H39V60H38zM40,59H41V60H40zM44,59H45V60H44zM45,59H46V60H45zM46,59H47V60H46zM48,59H49V60H48zM51,59H52V60H51zM52,59H53V60H52zM54,59H55V60H54zM55,59H56V60H55zM56,59H57V60H56zM60,59H61V60H60zM62,59H63V60H62zM64,59H65V60H64zM4,60H5V61H4zM6,60H7V61H6zM7,60H8V61H7zM8,60H9V61H8zM10,60H11V61H10zM12,60H13V61H12zM13,60H14V61H13zM14,60H15V61H14zM15,60H16V61H15zM16,60H17V61H16zM18,60H19V61H18zM22,60H23V61H22zM23,60H24V61H23zM25,60H26V61H25zM26,60H27V61H26zM28,60H29V61H28zM30,60H31V61H30zM31,60H32V61H31zM32,60H33V61H32zM33,60H34V61H33zM34,60H35V61H34zM35,60H36V61H35zM36,60H37V61H36zM38,60H39V61H38zM39,60H40V61H39zM42,60H43V61H42zM43,60H44V61H43zM48,60H49V61H48zM49,60H50V61H49zM51,60H52V61H51zM52,60H53V61H52zM54,60H55V61H54zM56,60H57V61H56zM57,60H58V61H57zM58,60H59V61H58zM59,60H60V61H59zM60,60H61V61H60zM62,60H63V61H62zM63,60H64V61H63zM4,61H5V62H4zM6,61H7V62H6zM7,61H8V62H7zM8,61H9V62H8zM10,61H11V62H10zM14,61H15V62H14zM17,61H18V62H17zM20,61H21V62H20zM21,61H22V62H21zM22,61H23V62H22zM25,61H26V62H25zM27,61H28V62H27zM28,61H29V62H28zM29,61H30V62H29zM32,61H33V62H32zM33,61H34V62H33zM36,61H37V62H36zM37,61H38V62H37zM38,61H39V62H38zM40,61H41V62H40zM43,61H44V62H43zM44,61H45V62H44zM46,61H47V62H46zM47,61H48V62H47zM49,61H50V62H49zM54,61H55V62H54zM56,61H57V62H56zM57,61H58V62H57zM60,61H61V62H60zM61,61H62V62H61zM62,61H63V62H62zM64,61H65V62H64zM4,62H5V63H4zM6,62H7V63H6zM7,62H8V63H7zM8,62H9V63H8zM10,62H11V63H10zM13,62H14V63H13zM14,62H15V63H14zM15,62H16V63H15zM16,62H17V63H16zM17,62H18V63H17zM21,62H22V63H21zM22,62H23V63H22zM24,62H25V63H24zM26,62H27V63H26zM31,62H32V63H31zM32,62H33V63H32zM33,62H34V63H33zM35,62H36V63H35zM39,62H40V63H39zM41,62H42V63H41zM42,62H43V63H42zM46,62H47V63H46zM49,62H50V63H49zM50,62H51V63H50zM54,62H55V63H54zM56,62H57V63H56zM58,62H59V63H58zM59,62H60V63H59zM61,62H62V63H61zM62,62H63V63H62zM63,62H64V63H63zM4,63H5V64H4zM10,63H11V64H10zM14,63H15V64H14zM16,63H17V64H16zM17,63H18V64H17zM18,63H19V64H18zM19,63H20V64H19zM20,63H21V64H20zM23,63H24V64H23zM24,63H25V64H24zM26,63H27V64H26zM27,63H28V64H27zM30,63H31V64H30zM31,63H32V64H31zM33,63H34V64H33zM35,63H36V64H35zM36,63H37V64H36zM44,63H45V64H44zM48,63H49V64H48zM52,63H53V64H52zM53,63H54V64H53zM54,63H55V64H54zM59,63H60V64H59zM60,63H61V64H60zM62,63H63V64H62zM63,63H64V64H63zM4,64H5V65H4zM5,64H6V65H5zM6,64H7V65H6zM7,64H8V65H7zM8,64H9V65H8zM9,64H10V65H9zM10,64H11V65H10zM13,64H14V65H13zM14,64H15V65H14zM16,64H17V65H16zM18,64H19V65H18zM19,64H20V65H19zM22,64H23V65H22zM23,64H24V65H23zM25,64H26V65H25zM27,64H28V65H27zM28,64H29V65H28zM31,64H32V65H31zM34,64H35V65H34zM35,64H36V65H35zM38,64H39V65H38zM40,64H41V65H40zM41,64H42V65H41zM43,64H44V65H43zM46,64H47V65H46zM48,64H49V65H48zM51,64H52V65H51zM52,64H53V65H52zM57,64H58V65H57zM60,64H61V65H60zM62,64H63V65H62zM63,64H64V65H63zM64,64H65V65H64z" id="qr-path" fill="#000000" fill-opacity="1" fill-rule="nonzero" stroke="none" /></svg>