<svg width="225" height="24" viewBox="0 0 225 24" fill="none" xmlns="http://www.w3.org/2000/svg">
<path d="M67.1227 0.751803C67.3459 0.751803 67.5286 0.934762 67.5286 1.15838V4.00442C67.5286 4.22803 67.3459 4.41099 67.1227 4.41099H58.0904L55.6548 6.85046V22.3004C55.6548 22.526 55.4721 22.707 55.2488 22.707H52.4072C52.1839 22.707 52.0013 22.526 52.0013 22.3004V6.85046L49.5656 4.41099H40.5334C40.3101 4.41099 40.1274 4.22803 40.1274 4.00442V1.15838C40.1274 0.934762 40.3101 0.751803 40.5334 0.751803H67.1227Z" fill="#F27A5E"/>
<path d="M105.484 0.751803H102.643C102.417 0.751803 102.237 0.934762 102.237 1.15838V22.3004C102.237 22.526 102.417 22.707 102.643 22.707H105.484C105.71 22.707 105.89 22.526 105.89 22.3004V1.15838C105.89 0.934762 105.71 0.751803 105.484 0.751803Z" fill="#F27A5E"/>
<path d="M115.02 4.41099L115.024 11.7294H128.826C129.051 11.7294 129.232 11.9123 129.232 12.136V14.982C129.232 15.2056 129.051 15.3886 128.826 15.3886H115.024V22.3004C115.024 22.526 114.843 22.707 114.618 22.707H111.776C111.551 22.707 111.371 22.526 111.371 22.3004V5.63072C111.371 2.93715 113.55 0.751803 116.242 0.751803H136.539C136.764 0.751803 136.945 0.934762 136.945 1.15838V4.00442C136.945 4.22803 136.764 4.41099 136.539 4.41099H115.02Z" fill="#F27A5E"/>
<path d="M166.173 5.63072C166.173 2.93715 163.993 0.751803 161.302 0.751803H145.47C142.778 0.751803 140.598 2.93715 140.598 5.63072V17.828C140.598 20.5216 142.778 22.707 145.47 22.707H161.302C163.993 22.707 166.173 20.5216 166.173 17.828V5.63072ZM162.519 19.0498H144.252V4.41099H162.519V19.0498Z" fill="#F27A5E"/>
<path d="M194.995 19.0478C195.218 19.0478 195.401 19.2307 195.401 19.4543V22.3004C195.401 22.526 195.218 22.707 194.995 22.707H174.698C172.006 22.707 169.826 20.5216 169.826 17.828V1.15838C169.826 0.934762 170.009 0.751803 170.232 0.751803H173.074C173.297 0.751803 173.48 0.934762 173.48 1.15838V19.0478H194.995Z" fill="#F27A5E"/>
<path d="M71.1821 22.3004C71.1821 22.526 71.3648 22.707 71.5881 22.707H74.4296C74.6529 22.707 74.8356 22.526 74.8356 22.3004V4.41099H91.2763L93.1031 6.24059V9.89978L91.2763 11.7294H80.7218C80.4985 11.7294 80.3158 11.9123 80.3158 12.136V14.982C80.3158 15.2056 80.4985 15.3886 80.7218 15.3886H91.2763L93.1031 17.2182V22.3004C93.1031 22.526 93.2837 22.707 93.509 22.707H96.3506C96.5759 22.707 96.7565 22.526 96.7565 22.3004V17.4093C96.7565 16.1143 96.243 14.8742 95.3297 13.9594L95.216 13.8456C95.0577 13.687 95.0577 13.4289 95.216 13.2703L95.3297 13.1565C96.243 12.2417 96.7565 10.9996 96.7565 9.70666V6.42965C96.7565 5.1347 96.243 3.89464 95.3297 2.97984L94.5299 2.17889C93.6166 1.26409 92.3784 0.74977 91.0855 0.74977H76.0534C73.362 0.74977 71.1821 2.93512 71.1821 5.62869V22.3004Z" fill="#F27A5E"/>
<path fill-rule="evenodd" clip-rule="evenodd" d="M217.334 0.751803C218.625 0.751803 219.865 1.26612 220.778 2.18092L223.202 4.60818C224.115 5.52298 224.629 6.76507 224.629 8.05799V15.4008C224.629 16.6957 224.115 17.9358 223.202 18.8506L220.778 21.2778C219.865 22.1926 218.627 22.707 217.334 22.707H199.054V9.89978H202.708V19.0478H217.525L220.975 15.5919V7.8669L217.525 4.41099H199.054V0.751803H217.334Z" fill="#F27A5E"/>
<path d="M29.7858 5.54388C30.1231 5.6553 30.0428 6.15243 29.6874 6.15243H18.3199C18.1802 6.15243 18.0574 6.24483 18.019 6.37885L13.2521 23.0238C13.1524 23.3719 12.6383 23.3001 12.6383 22.9381V10.6498C12.6383 10.5114 12.5469 10.3895 12.4139 10.3504L0.224655 6.76404C-0.1219 6.66208 -0.0481407 6.15243 0.31317 6.15243H12.3254C12.4982 6.15243 12.6383 6.01266 12.6383 5.84024V0.31242C12.6383 0.099605 12.847 -0.0508299 13.0496 0.0160565L29.7858 5.54388Z" fill="#F27A5E"/>
</svg>
