<svg width="222" height="50" viewBox="0 0 222 50" fill="none" xmlns="http://www.w3.org/2000/svg">
<path d="M2.80885 0.0332031C2.36535 0.0701617 1.92184 0.18104 1.5153 0.43975C0.554378 0.994128 0 2.02897 0 3.06381C0 3.50731 0.110876 3.98777 0.332628 4.43128L15.2269 30.3392L20.0685 21.9866L27.9407 8.38584L23.0991 0.0332031H2.80885Z" fill="#6EBB49"></path>
<path d="M2.80885 0.0273438C2.36535 0.0643023 1.92184 0.17518 1.5153 0.43389C0.554378 0.988269 0 2.02311 0 3.05795C0 3.50145 0.110876 3.98191 0.332628 4.42542L15.2269 30.3334L20.0685 21.9807L27.9407 8.37998L23.0991 0.0273438H2.80885Z" fill="#979797"></path>
<path d="M23.1367 0.0332031L35.8135 21.9496H44.7205H45.4227L55.5863 4.35736C55.7711 3.95082 55.882 3.54427 55.882 3.06381C55.882 1.43763 54.6254 0.144079 53.0362 0.0332031H23.1367Z" fill="#00AE9C"></path>
<path d="M44.7547 21.9512H20.1033L15.2617 30.3038L25.4623 47.8961C25.684 48.2657 26.0536 48.5613 26.4232 48.82C26.9037 49.0788 27.4211 49.2266 27.9385 49.2266C28.9364 49.2266 29.8973 48.7092 30.4886 47.8591L45.4569 21.9512H44.7547Z" fill="#B8D335"></path>
<path d="M142.034 7.90625H141.849C131.87 8.01713 125.698 15.5936 125.698 25.092C125.698 34.2208 131.316 41.8712 141.516 41.8712H141.886C151.828 41.7603 158.037 35.0338 158.037 24.5376C158 15.7784 152.641 7.90625 142.034 7.90625ZM141.96 34.923L141.849 34.886C137.599 34.886 134.938 30.7836 135.011 24.9072C135.011 19.1786 137.599 14.8914 141.849 14.8914C146.136 14.8914 148.686 19.1786 148.686 24.8702C148.686 30.8206 146.21 34.923 141.96 34.923ZM215.359 23.5767V23.5028C219.24 22.0244 220.718 19.3634 220.718 16.6285C220.718 13.4131 218.87 11.0477 216.283 9.82809C214.103 8.7563 211.737 8.34976 208.226 8.23888C207.598 8.20192 206.933 8.20192 206.194 8.20192C202.165 8.20192 197.804 8.53455 195.808 8.94109V41.169C197.582 41.5016 200.502 41.7603 204.494 41.7603C205.824 41.7603 207.044 41.7233 208.226 41.6494C213.031 41.3168 216.099 40.3189 218.094 38.8406C220.312 37.1774 221.79 34.7382 221.79 31.6337C221.79 27.6791 219.351 24.6854 215.359 23.5767ZM204.53 14.7436C205.122 14.6327 205.972 14.5588 207.413 14.5588C207.672 14.5588 207.968 14.5958 208.189 14.5958C210.629 14.7805 211.848 15.9632 211.848 17.6633C211.848 19.3634 210.666 20.583 208.189 20.9526C207.598 21.0265 206.97 21.1005 206.268 21.1005H204.53V14.7436ZM208.226 35.2186C207.857 35.2556 207.487 35.2925 207.118 35.2925C206.009 35.2925 205.196 35.2926 204.567 35.1817V27.3465H206.674C207.228 27.3465 207.746 27.3465 208.226 27.4204C210.74 27.753 212.514 28.8618 212.514 31.1902C212.514 33.7403 210.629 34.9599 208.226 35.2186ZM193.147 24.5746C193.147 15.7784 187.788 7.90625 177.181 7.90625H176.996C167.018 8.01713 160.845 15.5936 160.845 25.092C160.845 34.2208 166.463 41.8712 176.664 41.8712H176.996C186.938 41.7603 193.147 35.0338 193.147 24.5746ZM177.107 34.923L176.996 34.886C172.746 34.886 170.122 30.7836 170.159 24.9072C170.159 19.1786 172.746 14.8914 176.996 14.8914C181.284 14.8914 183.834 19.1786 183.834 24.8702C183.834 30.8206 181.357 34.923 177.107 34.923ZM123.148 33.5925C121.78 34.1468 119.378 34.5164 117.271 34.5164C111.21 34.5164 107.662 30.7836 107.662 24.8702C107.662 18.1807 112.023 15.1871 117.087 15.1871C119.711 15.1871 122.446 15.9632 123.185 16.3698C124.737 12.8217 124.367 7.98017 116.68 7.98017C106.849 7.98017 98.3485 13.8935 98.3485 25.4246C98.3485 34.1838 103.781 41.8342 116.089 41.8342C120.006 41.8342 123.111 41.095 124.33 40.4667L123.148 33.5925ZM85.3761 8.46063V41.3538H94.2092V13.8566C94.1722 9.68026 91.9547 8.46063 85.3761 8.46063ZM72.5145 21.4331C68.3382 19.8808 66.6011 19.2525 66.6011 17.5894C66.6011 16.1111 68.0795 15.1501 70.7774 15.1501C74.0667 15.1501 77.2821 16.3698 77.9104 16.7024C79.167 13.3392 79.8692 7.94321 70.8883 7.94321C62.5726 7.94321 57.6571 12.4522 57.6571 18.2547C57.6571 23.1332 61.39 26.1638 66.9337 28.1595C70.6666 29.4161 72.1079 30.3031 72.1079 31.9293C72.1079 33.5925 70.6296 34.5903 67.599 34.5903C64.3097 34.5903 61.0943 33.5925 59.0616 32.5207L57.3984 39.8015C59.2464 40.7994 63.0901 41.7973 67.0446 41.7973C76.6538 41.7973 81.0519 36.9557 81.0519 31.301C81.0519 26.7551 78.4279 23.6136 72.5145 21.4331Z" fill="#979797"></path>
<path d="M55.5551 4.32415C55.7399 3.91761 55.8508 3.4741 55.8508 2.99364C55.8508 1.88488 55.2225 0.887006 54.3355 0.369586C53.9289 0.147834 53.4854 0 53.0049 0L23.1055 0.073916L27.947 8.42655L35.8192 21.9903L45.4654 21.9164L55.5551 4.32415Z" fill="#787878"></path>
<path d="M25.4292 47.898C25.6879 48.2676 26.0206 48.5633 26.4271 48.822C27.388 49.3764 28.5337 49.3394 29.4577 48.822C29.8643 48.6002 30.1969 48.2676 30.4556 47.8611L45.4238 21.9901H35.7776L20.0702 21.9531L15.2656 30.3058L25.4292 47.898Z" fill="#BABABA"></path>
</svg>